# Blender v2.90.0 OBJ File: ''
# www.blender.org
mtllib creeper.mtl
o 4c12a5a7-c21c-afd6-09a5-19b84585d844_Mesh_0
v 4.000000 18.000000 2.000000
v 4.000000 6.000000 2.000000
v 4.000000 18.000000 -2.000000
v 4.000000 6.000000 2.000000
v 4.000000 6.000000 -2.000000
v 4.000000 18.000000 -2.000000
v -4.000000 18.000000 -2.000000
v -4.000000 6.000000 -2.000000
v -4.000000 18.000000 2.000000
v -4.000000 6.000000 -2.000000
v -4.000000 6.000000 2.000000
v -4.000000 18.000000 2.000000
v -4.000000 18.000000 -2.000000
v -4.000000 18.000000 2.000000
v 4.000000 18.000000 -2.000000
v -4.000000 18.000000 2.000000
v 4.000000 18.000000 2.000000
v 4.000000 18.000000 -2.000000
v -4.000000 6.000000 2.000000
v -4.000000 6.000000 -2.000000
v 4.000000 6.000000 2.000000
v -4.000000 6.000000 -2.000000
v 4.000000 6.000000 -2.000000
v 4.000000 6.000000 2.000000
v -4.000000 18.000000 2.000000
v -4.000000 6.000000 2.000000
v 4.000000 18.000000 2.000000
v -4.000000 6.000000 2.000000
v 4.000000 6.000000 2.000000
v 4.000000 18.000000 2.000000
v 4.000000 18.000000 -2.000000
v 4.000000 6.000000 -2.000000
v -4.000000 18.000000 -2.000000
v 4.000000 6.000000 -2.000000
v -4.000000 6.000000 -2.000000
v -4.000000 18.000000 -2.000000
vt 0.250244 0.625488
vt 0.250244 0.999512
vt 0.312256 0.625488
vt 0.250244 0.999512
vt 0.312256 0.999512
vt 0.312256 0.625488
vt 0.437744 0.625488
vt 0.437744 0.999512
vt 0.499756 0.625488
vt 0.437744 0.999512
vt 0.499756 0.999512
vt 0.499756 0.625488
vt 0.437256 0.624512
vt 0.437256 0.500488
vt 0.312744 0.624512
vt 0.437256 0.500488
vt 0.312744 0.500488
vt 0.312744 0.624512
vt 0.562256 0.500488
vt 0.562256 0.624512
vt 0.437744 0.500488
vt 0.562256 0.624512
vt 0.437744 0.624512
vt 0.437744 0.500488
vt 0.500244 0.625488
vt 0.500244 0.999512
vt 0.624756 0.625488
vt 0.500244 0.999512
vt 0.624756 0.999512
vt 0.624756 0.625488
vt 0.312744 0.625488
vt 0.312744 0.999512
vt 0.437256 0.625488
vt 0.312744 0.999512
vt 0.437256 0.999512
vt 0.437256 0.625488
vn 1.0000 0.0000 0.0000
vn -1.0000 0.0000 0.0000
vn 0.0000 1.0000 0.0000
vn 0.0000 -1.0000 0.0000
vn 0.0000 0.0000 1.0000
vn 0.0000 0.0000 -1.0000
usemtl texture
s off
f 1/1/1 2/2/1 3/3/1
f 4/4/1 5/5/1 6/6/1
f 7/7/2 8/8/2 9/9/2
f 10/10/2 11/11/2 12/12/2
f 13/13/3 14/14/3 15/15/3
f 16/16/3 17/17/3 18/18/3
f 19/19/4 20/20/4 21/21/4
f 22/22/4 23/23/4 24/24/4
f 25/25/5 26/26/5 27/27/5
f 28/28/5 29/29/5 30/30/5
f 31/31/6 32/32/6 33/33/6
f 34/34/6 35/35/6 36/36/6
o 4cd9b7c6-1774-147c-3d98-49813e8ec344_Mesh_1
v 4.000000 26.000000 4.000000
v 4.000000 18.000000 4.000000
v 4.000000 26.000000 -4.000000
v 4.000000 18.000000 4.000000
v 4.000000 18.000000 -4.000000
v 4.000000 26.000000 -4.000000
v -4.000000 26.000000 -4.000000
v -4.000000 18.000000 -4.000000
v -4.000000 26.000000 4.000000
v -4.000000 18.000000 -4.000000
v -4.000000 18.000000 4.000000
v -4.000000 26.000000 4.000000
v -4.000000 26.000000 -4.000000
v -4.000000 26.000000 4.000000
v 4.000000 26.000000 -4.000000
v -4.000000 26.000000 4.000000
v 4.000000 26.000000 4.000000
v 4.000000 26.000000 -4.000000
v -4.000000 18.000000 4.000000
v -4.000000 18.000000 -4.000000
v 4.000000 18.000000 4.000000
v -4.000000 18.000000 -4.000000
v 4.000000 18.000000 -4.000000
v 4.000000 18.000000 4.000000
v -4.000000 26.000000 4.000000
v -4.000000 18.000000 4.000000
v 4.000000 26.000000 4.000000
v -4.000000 18.000000 4.000000
v 4.000000 18.000000 4.000000
v 4.000000 26.000000 4.000000
v 4.000000 26.000000 -4.000000
v 4.000000 18.000000 -4.000000
v -4.000000 26.000000 -4.000000
v 4.000000 18.000000 -4.000000
v -4.000000 18.000000 -4.000000
v -4.000000 26.000000 -4.000000
vt 0.000244 0.250488
vt 0.000244 0.499512
vt 0.124756 0.250488
vt 0.000244 0.499512
vt 0.124756 0.499512
vt 0.124756 0.250488
vt 0.250244 0.250488
vt 0.250244 0.499512
vt 0.374756 0.250488
vt 0.250244 0.499512
vt 0.374756 0.499512
vt 0.374756 0.250488
vt 0.249756 0.249512
vt 0.249756 0.000488
vt 0.125244 0.249512
vt 0.249756 0.000488
vt 0.125244 0.000488
vt 0.125244 0.249512
vt 0.374756 0.000488
vt 0.374756 0.249512
vt 0.250244 0.000488
vt 0.374756 0.249512
vt 0.250244 0.249512
vt 0.250244 0.000488
vt 0.375244 0.250488
vt 0.375244 0.499512
vt 0.499756 0.250488
vt 0.375244 0.499512
vt 0.499756 0.499512
vt 0.499756 0.250488
vt 0.125244 0.250488
vt 0.125244 0.499512
vt 0.249756 0.250488
vt 0.125244 0.499512
vt 0.249756 0.499512
vt 0.249756 0.250488
vn 1.0000 0.0000 0.0000
vn -1.0000 0.0000 0.0000
vn 0.0000 1.0000 0.0000
vn 0.0000 -1.0000 0.0000
vn 0.0000 0.0000 1.0000
vn 0.0000 0.0000 -1.0000
usemtl texture
s off
f 37/37/7 38/38/7 39/39/7
f 40/40/7 41/41/7 42/42/7
f 43/43/8 44/44/8 45/45/8
f 46/46/8 47/47/8 48/48/8
f 49/49/9 50/50/9 51/51/9
f 52/52/9 53/53/9 54/54/9
f 55/55/10 56/56/10 57/57/10
f 58/58/10 59/59/10 60/60/10
f 61/61/11 62/62/11 63/63/11
f 64/64/11 65/65/11 66/66/11
f 67/67/12 68/68/12 69/69/12
f 70/70/12 71/71/12 72/72/12
o 1eeeaa20-9316-af4f-95c8-4ebf37589412_Mesh_2
v 4.000000 6.000000 6.000000
v 4.000000 0.000000 6.000000
v 4.000000 6.000000 2.000000
v 4.000000 0.000000 6.000000
v 4.000000 0.000000 2.000000
v 4.000000 6.000000 2.000000
v 0.000000 6.000000 2.000000
v 0.000000 0.000000 2.000000
v 0.000000 6.000000 6.000000
v 0.000000 0.000000 2.000000
v 0.000000 0.000000 6.000000
v 0.000000 6.000000 6.000000
v 0.000000 6.000000 2.000000
v 0.000000 6.000000 6.000000
v 4.000000 6.000000 2.000000
v 0.000000 6.000000 6.000000
v 4.000000 6.000000 6.000000
v 4.000000 6.000000 2.000000
v 0.000000 0.000000 6.000000
v 0.000000 0.000000 2.000000
v 4.000000 0.000000 6.000000
v 0.000000 0.000000 2.000000
v 4.000000 0.000000 2.000000
v 4.000000 0.000000 6.000000
v 0.000000 6.000000 6.000000
v 0.000000 0.000000 6.000000
v 4.000000 6.000000 6.000000
v 0.000000 0.000000 6.000000
v 4.000000 0.000000 6.000000
v 4.000000 6.000000 6.000000
v 4.000000 6.000000 2.000000
v 4.000000 0.000000 2.000000
v 0.000000 6.000000 2.000000
v 4.000000 0.000000 2.000000
v 0.000000 0.000000 2.000000
v 0.000000 6.000000 2.000000
vt 0.000244 0.625488
vt 0.000244 0.812012
vt 0.062256 0.625488
vt 0.000244 0.812012
vt 0.062256 0.812012
vt 0.062256 0.625488
vt 0.125244 0.625488
vt 0.125244 0.812012
vt 0.187256 0.625488
vt 0.125244 0.812012
vt 0.187256 0.812012
vt 0.187256 0.625488
vt 0.124756 0.624512
vt 0.124756 0.500488
vt 0.062744 0.624512
vt 0.124756 0.500488
vt 0.062744 0.500488
vt 0.062744 0.624512
vt 0.187256 0.500488
vt 0.187256 0.624512
vt 0.125244 0.500488
vt 0.187256 0.624512
vt 0.125244 0.624512
vt 0.125244 0.500488
vt 0.187744 0.625488
vt 0.187744 0.812012
vt 0.249756 0.625488
vt 0.187744 0.812012
vt 0.249756 0.812012
vt 0.249756 0.625488
vt 0.062744 0.625488
vt 0.062744 0.812012
vt 0.124756 0.625488
vt 0.062744 0.812012
vt 0.124756 0.812012
vt 0.124756 0.625488
vn 1.0000 0.0000 0.0000
vn -1.0000 0.0000 0.0000
vn 0.0000 1.0000 0.0000
vn 0.0000 -1.0000 0.0000
vn 0.0000 0.0000 1.0000
vn 0.0000 0.0000 -1.0000
usemtl texture
s off
f 73/73/13 74/74/13 75/75/13
f 76/76/13 77/77/13 78/78/13
f 79/79/14 80/80/14 81/81/14
f 82/82/14 83/83/14 84/84/14
f 85/85/15 86/86/15 87/87/15
f 88/88/15 89/89/15 90/90/15
f 91/91/16 92/92/16 93/93/16
f 94/94/16 95/95/16 96/96/16
f 97/97/17 98/98/17 99/99/17
f 100/100/17 101/101/17 102/102/17
f 103/103/18 104/104/18 105/105/18
f 106/106/18 107/107/18 108/108/18
o 7ff61c3d-38dc-95eb-ba2f-7fbae73597b9_Mesh_3
v 0.000000 6.000000 6.000000
v 0.000000 0.000000 6.000000
v 0.000000 6.000000 2.000000
v 0.000000 0.000000 6.000000
v 0.000000 0.000000 2.000000
v 0.000000 6.000000 2.000000
v -4.000000 6.000000 2.000000
v -4.000000 0.000000 2.000000
v -4.000000 6.000000 6.000000
v -4.000000 0.000000 2.000000
v -4.000000 0.000000 6.000000
v -4.000000 6.000000 6.000000
v -4.000000 6.000000 2.000000
v -4.000000 6.000000 6.000000
v 0.000000 6.000000 2.000000
v -4.000000 6.000000 6.000000
v 0.000000 6.000000 6.000000
v 0.000000 6.000000 2.000000
v -4.000000 0.000000 6.000000
v -4.000000 0.000000 2.000000
v 0.000000 0.000000 6.000000
v -4.000000 0.000000 2.000000
v 0.000000 0.000000 2.000000
v 0.000000 0.000000 6.000000
v -4.000000 6.000000 6.000000
v -4.000000 0.000000 6.000000
v 0.000000 6.000000 6.000000
v -4.000000 0.000000 6.000000
v 0.000000 0.000000 6.000000
v 0.000000 6.000000 6.000000
v 0.000000 6.000000 2.000000
v 0.000000 0.000000 2.000000
v -4.000000 6.000000 2.000000
v 0.000000 0.000000 2.000000
v -4.000000 0.000000 2.000000
v -4.000000 6.000000 2.000000
vt 0.000244 0.625488
vt 0.000244 0.812012
vt 0.062256 0.625488
vt 0.000244 0.812012
vt 0.062256 0.812012
vt 0.062256 0.625488
vt 0.125244 0.625488
vt 0.125244 0.812012
vt 0.187256 0.625488
vt 0.125244 0.812012
vt 0.187256 0.812012
vt 0.187256 0.625488
vt 0.124756 0.624512
vt 0.124756 0.500488
vt 0.062744 0.624512
vt 0.124756 0.500488
vt 0.062744 0.500488
vt 0.062744 0.624512
vt 0.187256 0.500488
vt 0.187256 0.624512
vt 0.125244 0.500488
vt 0.187256 0.624512
vt 0.125244 0.624512
vt 0.125244 0.500488
vt 0.187744 0.625488
vt 0.187744 0.812012
vt 0.249756 0.625488
vt 0.187744 0.812012
vt 0.249756 0.812012
vt 0.249756 0.625488
vt 0.062744 0.625488
vt 0.062744 0.812012
vt 0.124756 0.625488
vt 0.062744 0.812012
vt 0.124756 0.812012
vt 0.124756 0.625488
vn 1.0000 0.0000 0.0000
vn -1.0000 0.0000 0.0000
vn 0.0000 1.0000 0.0000
vn 0.0000 -1.0000 0.0000
vn 0.0000 0.0000 1.0000
vn 0.0000 0.0000 -1.0000
usemtl texture
s off
f 109/109/19 110/110/19 111/111/19
f 112/112/19 113/113/19 114/114/19
f 115/115/20 116/116/20 117/117/20
f 118/118/20 119/119/20 120/120/20
f 121/121/21 122/122/21 123/123/21
f 124/124/21 125/125/21 126/126/21
f 127/127/22 128/128/22 129/129/22
f 130/130/22 131/131/22 132/132/22
f 133/133/23 134/134/23 135/135/23
f 136/136/23 137/137/23 138/138/23
f 139/139/24 140/140/24 141/141/24
f 142/142/24 143/143/24 144/144/24
o 537b7e93-7ec0-2682-6ec4-519305bf87d9_Mesh_4
v 4.000000 6.000000 -2.000000
v 4.000000 0.000000 -2.000000
v 4.000000 6.000000 -6.000000
v 4.000000 0.000000 -2.000000
v 4.000000 0.000000 -6.000000
v 4.000000 6.000000 -6.000000
v 0.000000 6.000000 -6.000000
v 0.000000 0.000000 -6.000000
v 0.000000 6.000000 -2.000000
v 0.000000 0.000000 -6.000000
v 0.000000 0.000000 -2.000000
v 0.000000 6.000000 -2.000000
v 0.000000 6.000000 -6.000000
v 0.000000 6.000000 -2.000000
v 4.000000 6.000000 -6.000000
v 0.000000 6.000000 -2.000000
v 4.000000 6.000000 -2.000000
v 4.000000 6.000000 -6.000000
v 0.000000 0.000000 -2.000000
v 0.000000 0.000000 -6.000000
v 4.000000 0.000000 -2.000000
v 0.000000 0.000000 -6.000000
v 4.000000 0.000000 -6.000000
v 4.000000 0.000000 -2.000000
v 0.000000 6.000000 -2.000000
v 0.000000 0.000000 -2.000000
v 4.000000 6.000000 -2.000000
v 0.000000 0.000000 -2.000000
v 4.000000 0.000000 -2.000000
v 4.000000 6.000000 -2.000000
v 4.000000 6.000000 -6.000000
v 4.000000 0.000000 -6.000000
v 0.000000 6.000000 -6.000000
v 4.000000 0.000000 -6.000000
v 0.000000 0.000000 -6.000000
v 0.000000 6.000000 -6.000000
vt 0.000244 0.625488
vt 0.000244 0.812012
vt 0.062256 0.625488
vt 0.000244 0.812012
vt 0.062256 0.812012
vt 0.062256 0.625488
vt 0.125244 0.625488
vt 0.125244 0.812012
vt 0.187256 0.625488
vt 0.125244 0.812012
vt 0.187256 0.812012
vt 0.187256 0.625488
vt 0.124756 0.624512
vt 0.124756 0.500488
vt 0.062744 0.624512
vt 0.124756 0.500488
vt 0.062744 0.500488
vt 0.062744 0.624512
vt 0.187256 0.500488
vt 0.187256 0.624512
vt 0.125244 0.500488
vt 0.187256 0.624512
vt 0.125244 0.624512
vt 0.125244 0.500488
vt 0.187744 0.625488
vt 0.187744 0.812012
vt 0.249756 0.625488
vt 0.187744 0.812012
vt 0.249756 0.812012
vt 0.249756 0.625488
vt 0.062744 0.625488
vt 0.062744 0.812012
vt 0.124756 0.625488
vt 0.062744 0.812012
vt 0.124756 0.812012
vt 0.124756 0.625488
vn 1.0000 0.0000 0.0000
vn -1.0000 0.0000 0.0000
vn 0.0000 1.0000 0.0000
vn 0.0000 -1.0000 0.0000
vn 0.0000 0.0000 1.0000
vn 0.0000 0.0000 -1.0000
usemtl texture
s off
f 145/145/25 146/146/25 147/147/25
f 148/148/25 149/149/25 150/150/25
f 151/151/26 152/152/26 153/153/26
f 154/154/26 155/155/26 156/156/26
f 157/157/27 158/158/27 159/159/27
f 160/160/27 161/161/27 162/162/27
f 163/163/28 164/164/28 165/165/28
f 166/166/28 167/167/28 168/168/28
f 169/169/29 170/170/29 171/171/29
f 172/172/29 173/173/29 174/174/29
f 175/175/30 176/176/30 177/177/30
f 178/178/30 179/179/30 180/180/30
o 3ecc9374-e46e-4336-dc13-94b9f7db6b29_Mesh_5
v 0.000000 6.000000 -2.000000
v 0.000000 0.000000 -2.000000
v 0.000000 6.000000 -6.000000
v 0.000000 0.000000 -2.000000
v 0.000000 0.000000 -6.000000
v 0.000000 6.000000 -6.000000
v -4.000000 6.000000 -6.000000
v -4.000000 0.000000 -6.000000
v -4.000000 6.000000 -2.000000
v -4.000000 0.000000 -6.000000
v -4.000000 0.000000 -2.000000
v -4.000000 6.000000 -2.000000
v -4.000000 6.000000 -6.000000
v -4.000000 6.000000 -2.000000
v 0.000000 6.000000 -6.000000
v -4.000000 6.000000 -2.000000
v 0.000000 6.000000 -2.000000
v 0.000000 6.000000 -6.000000
v -4.000000 0.000000 -2.000000
v -4.000000 0.000000 -6.000000
v 0.000000 0.000000 -2.000000
v -4.000000 0.000000 -6.000000
v 0.000000 0.000000 -6.000000
v 0.000000 0.000000 -2.000000
v -4.000000 6.000000 -2.000000
v -4.000000 0.000000 -2.000000
v 0.000000 6.000000 -2.000000
v -4.000000 0.000000 -2.000000
v 0.000000 0.000000 -2.000000
v 0.000000 6.000000 -2.000000
v 0.000000 6.000000 -6.000000
v 0.000000 0.000000 -6.000000
v -4.000000 6.000000 -6.000000
v 0.000000 0.000000 -6.000000
v -4.000000 0.000000 -6.000000
v -4.000000 6.000000 -6.000000
vt 0.000244 0.625488
vt 0.000244 0.812012
vt 0.062256 0.625488
vt 0.000244 0.812012
vt 0.062256 0.812012
vt 0.062256 0.625488
vt 0.125244 0.625488
vt 0.125244 0.812012
vt 0.187256 0.625488
vt 0.125244 0.812012
vt 0.187256 0.812012
vt 0.187256 0.625488
vt 0.124756 0.624512
vt 0.124756 0.500488
vt 0.062744 0.624512
vt 0.124756 0.500488
vt 0.062744 0.500488
vt 0.062744 0.624512
vt 0.187256 0.500488
vt 0.187256 0.624512
vt 0.125244 0.500488
vt 0.187256 0.624512
vt 0.125244 0.624512
vt 0.125244 0.500488
vt 0.187744 0.625488
vt 0.187744 0.812012
vt 0.249756 0.625488
vt 0.187744 0.812012
vt 0.249756 0.812012
vt 0.249756 0.625488
vt 0.062744 0.625488
vt 0.062744 0.812012
vt 0.124756 0.625488
vt 0.062744 0.812012
vt 0.124756 0.812012
vt 0.124756 0.625488
vn 1.0000 0.0000 0.0000
vn -1.0000 0.0000 0.0000
vn 0.0000 1.0000 0.0000
vn 0.0000 -1.0000 0.0000
vn 0.0000 0.0000 1.0000
vn 0.0000 0.0000 -1.0000
usemtl texture
s off
f 181/181/31 182/182/31 183/183/31
f 184/184/31 185/185/31 186/186/31
f 187/187/32 188/188/32 189/189/32
f 190/190/32 191/191/32 192/192/32
f 193/193/33 194/194/33 195/195/33
f 196/196/33 197/197/33 198/198/33
f 199/199/34 200/200/34 201/201/34
f 202/202/34 203/203/34 204/204/34
f 205/205/35 206/206/35 207/207/35
f 208/208/35 209/209/35 210/210/35
f 211/211/36 212/212/36 213/213/36
f 214/214/36 215/215/36 216/216/36
